<svg width="1000" height="600" xmlns="http://www.w3.org/2000/svg">
  <!-- Sky gradient -->
  <defs>
    <linearGradient id="skyGradient" x1="0%" y1="0%" x2="0%" y2="60%">
      <stop offset="0%" stop-color="#4B79A1" />
      <stop offset="100%" stop-color="#79A7D3" />
    </linearGradient>
    <linearGradient id="roadGradient" x1="0%" y1="0%" x2="0%" y2="100%">
      <stop offset="0%" stop-color="#555555" />
      <stop offset="100%" stop-color="#333333" />
    </linearGradient>
  </defs>
  
  <!-- Sky -->
  <rect x="0" y="0" width="1000" height="400" fill="url(#skyGradient)" />
  
  <!-- Sidewalk -->
  <rect x="0" y="400" width="1000" height="100" fill="#A9A9A9" />
  
  <!-- Vertical lines on sidewalk -->
  <g stroke="#888888" stroke-width="1">
    <line x1="0" y1="400" x2="0" y2="500" />
    <line x1="40" y1="400" x2="40" y2="500" />
    <line x1="80" y1="400" x2="80" y2="500" />
    <line x1="120" y1="400" x2="120" y2="500" />
    <line x1="160" y1="400" x2="160" y2="500" />
    <line x1="200" y1="400" x2="200" y2="500" />
    <line x1="240" y1="400" x2="240" y2="500" />
    <line x1="280" y1="400" x2="280" y2="500" />
    <line x1="320" y1="400" x2="320" y2="500" />
    <line x1="360" y1="400" x2="360" y2="500" />
    <line x1="400" y1="400" x2="400" y2="500" />
    <line x1="440" y1="400" x2="440" y2="500" />
    <line x1="480" y1="400" x2="480" y2="500" />
    <line x1="520" y1="400" x2="520" y2="500" />
    <line x1="560" y1="400" x2="560" y2="500" />
    <line x1="600" y1="400" x2="600" y2="500" />
    <line x1="640" y1="400" x2="640" y2="500" />
    <line x1="680" y1="400" x2="680" y2="500" />
    <line x1="720" y1="400" x2="720" y2="500" />
    <line x1="760" y1="400" x2="760" y2="500" />
    <line x1="800" y1="400" x2="800" y2="500" />
    <line x1="840" y1="400" x2="840" y2="500" />
    <line x1="880" y1="400" x2="880" y2="500" />
    <line x1="920" y1="400" x2="920" y2="500" />
    <line x1="960" y1="400" x2="960" y2="500" />
  </g>
  
  <!-- Horizontal lines on sidewalk -->
  <g stroke="#888888" stroke-width="1">
    <line x1="0" y1="420" x2="1000" y2="420" />
    <line x1="0" y1="440" x2="1000" y2="440" />
    <line x1="0" y1="460" x2="1000" y2="460" />
    <line x1="0" y1="480" x2="1000" y2="480" />
  </g>
  
  <!-- Road -->
  <rect x="0" y="500" width="1000" height="100" fill="url(#roadGradient)" />
  
  <!-- Road markings -->
  <g stroke="#FFFFFF" stroke-width="6">
    <line x1="0" y1="550" x2="30" y2="550" />
    <line x1="70" y1="550" x2="100" y2="550" />
    <line x1="140" y1="550" x2="170" y2="550" />
    <line x1="210" y1="550" x2="240" y2="550" />
    <line x1="280" y1="550" x2="310" y2="550" />
    <line x1="350" y1="550" x2="380" y2="550" />
    <line x1="420" y1="550" x2="450" y2="550" />
    <line x1="490" y1="550" x2="520" y2="550" />
    <line x1="560" y1="550" x2="590" y2="550" />
    <line x1="630" y1="550" x2="660" y2="550" />
    <line x1="700" y1="550" x2="730" y2="550" />
    <line x1="770" y1="550" x2="800" y2="550" />
    <line x1="840" y1="550" x2="870" y2="550" />
    <line x1="910" y1="550" x2="940" y2="550" />
    <line x1="980" y1="550" x2="1000" y2="550" />
  </g>
  
  <!-- Trees -->
  <g id="tree" fill="#228B22">
    <rect x="50" y="380" width="6" height="20" fill="#8B4513" />
    <circle cx="53" cy="370" r="12" />
    
    <rect x="250" y="380" width="6" height="20" fill="#8B4513" />
    <circle cx="253" cy="370" r="12" />
    
    <rect x="450" y="380" width="6" height="20" fill="#8B4513" />
    <circle cx="453" cy="370" r="12" />
    
    <rect x="650" y="380" width="6" height="20" fill="#8B4513" />
    <circle cx="653" cy="370" r="12" />
    
    <rect x="850" y="380" width="6" height="20" fill="#8B4513" />
    <circle cx="853" cy="370" r="12" />
  </g>
  
  <!-- Clouds -->
  <g fill="#FFFFFF" opacity="0.8">
    <circle cx="100" cy="100" r="30" />
    <circle cx="130" cy="90" r="25" />
    <circle cx="160" cy="100" r="20" />
    
    <circle cx="400" cy="80" r="25" />
    <circle cx="430" cy="70" r="20" />
    <circle cx="460" cy="80" r="30" />
    
    <circle cx="700" cy="120" r="20" />
    <circle cx="730" cy="110" r="30" />
    <circle cx="760" cy="120" r="25" />
  </g>
</svg>